HIERARCHY
ROOT root
{
	OFFSET	0	13.1	24.9
	CHANNELS 6  Xposition Yposition Zposition Xrotation Yrotation Zrotation
	JOINT spine_1
	{
		OFFSET	0	9.99999	0
		CHANNELS 3  Xrotation Yrotation Zrotation
		JOINT spine_2
		{
			OFFSET	0	112	-10
			CHANNELS 3  Xrotation Yrotation Zrotation
			JOINT spine_3
			{
				OFFSET	0	206.5	19.3
				CHANNELS 3  Xrotation Yrotation Zrotation
				JOINT spine_4
				{
					OFFSET	0	110.4	14.6
					CHANNELS 3  Xrotation Yrotation Zrotation
					JOINT neck_1
					{
						OFFSET	0	71.8	-50.3
						CHANNELS 3  Xrotation Yrotation Zrotation
						JOINT neck_2
						{
							OFFSET	0	86.2	-25.8
							CHANNELS 3  Xrotation Yrotation Zrotation
							JOINT head_ee
							{
								OFFSET	0	179.8	-8.7
								CHANNELS 3  Xrotation Yrotation Zrotation
								End Site
								{
									OFFSET	1	0	0
								}
							}
						}
					}
					JOINT left_clavicle
					{
						OFFSET	-43.2	22.4	-70.8
						CHANNELS 3  Xrotation Yrotation Zrotation
						JOINT left_shoulder
						{
							OFFSET	-93.9	-5.79999	48.7
							CHANNELS 3  Xrotation Yrotation Zrotation
							JOINT left_elbow
							{
								OFFSET	-291.4	-30.8	15.2
								CHANNELS 3  Xrotation Yrotation Zrotation
								JOINT left_lowarm_twist
								{
									OFFSET	-110.7	-3.89999	13.6
									CHANNELS 3  Xrotation Yrotation Zrotation
									JOINT left_hand
									{
										OFFSET	-110.7	-3.89999	13.6
										CHANNELS 3  Xrotation Yrotation Zrotation
										JOINT left_ee
										{
											OFFSET	-80.8	-5.10001	12.1
											CHANNELS 3  Xrotation Yrotation Zrotation
											End Site
											{
												OFFSET	1	0	0
											}
										}
									}
								}
							}
						}
					}
					JOINT right_clavicle
					{
						OFFSET	43.2	22.4	-70.8
						CHANNELS 3  Xrotation Yrotation Zrotation
						JOINT right_shoulder
						{
							OFFSET	93.9	-5.79999	48.7
							CHANNELS 3  Xrotation Yrotation Zrotation
							JOINT right_elbow
							{
								OFFSET	291.4	-30.8	15.2
								CHANNELS 3  Xrotation Yrotation Zrotation
								JOINT right_lowarm_twist
								{
									OFFSET	110.7	-3.89999	13.6
									CHANNELS 3  Xrotation Yrotation Zrotation
									JOINT right_hand
									{
										OFFSET	110.7	-3.89999	13.6
										CHANNELS 3  Xrotation Yrotation Zrotation
										JOINT right_ee
										{
											OFFSET	80.8	-5.10001	12.1
											CHANNELS 3  Xrotation Yrotation Zrotation
											End Site
											{
												OFFSET	1	0	0
											}
										}
									}
								}
							}
						}
					}
				}
			}
		}
	}
	JOINT left_hip
	{
		OFFSET	-82.8	-127.5	0.300001
		CHANNELS 3  Xrotation Yrotation Zrotation
		JOINT left_knee
		{
			OFFSET	-28.2	-396.7	2.2
			CHANNELS 3  Xrotation Yrotation Zrotation
			JOINT left_ankle
			{
				OFFSET	-11.7	-411.3	35.4
				CHANNELS 3  Xrotation Yrotation Zrotation
				JOINT left_toes
				{
					OFFSET	0	-60	-88.6
					CHANNELS 3  Xrotation Yrotation Zrotation
					JOINT left_foot_ee
					{
						OFFSET	-22.5	-16.5	-42.2
						CHANNELS 3  Xrotation Yrotation Zrotation
						End Site
						{
							OFFSET	1	0	0
						}
					}
				}
			}
		}
	}
	JOINT right_hip
	{
		OFFSET	82.8	-127.5	0.300001
		CHANNELS 3  Xrotation Yrotation Zrotation
		JOINT right_knee
		{
			OFFSET	28.2	-396.7	2.2
			CHANNELS 3  Xrotation Yrotation Zrotation
			JOINT right_ankle
			{
				OFFSET	11.7	-411.3	35.4
				CHANNELS 3  Xrotation Yrotation Zrotation
				JOINT right_toes
				{
					OFFSET	0	-60	-88.6
					CHANNELS 3  Xrotation Yrotation Zrotation
					JOINT right_foot_ee
					{
						OFFSET	22.5	-16.5	-42.2
						CHANNELS 3  Xrotation Yrotation Zrotation
						End Site
						{
							OFFSET	1	0	0
						}
					}
				}
			}
		}
	}
}
MOTION
Frames: 5
Frame Time: 0.02
3177.02 653.055 -1669.29 -16.8481384646 17.1926738404 10.3345821801 7.54089 0.377253 -0.638981 7.54102 0.417148 -0.613682 7.53642 0.465006 -0.578263 7.53614 0.367846 -0.644442 -17.4524 4.32604 -2.37379 -17.544 9.62346 -0.598396 -0.0 0.0 -0.0 3.68873 18.8689 7.7543 -37.4515 -4.71903 64.5776 0.323603 -9.10742 0.0257734 63.2242 -2.06923 -7.39719 0.0695786 3.41855 1.89357 -0.0 0.0 -0.0 12.2859 16.8389 -24.7784 -3.80924 11.3309 -60.5231 1.18979 30.5134 -0.324534 15.7279 -0.283604 1.98279 2.7125 24.774 -7.13908 0.0 0.0 0.0 37.18 -38.3608 -6.02893 -1.25117 0.0494914 0.185627 -9.30649 30.2138 1.49021 5.79541 -0.0 -0.0 -0.0 0.0 -0.0 8.68653 -9.33185 -7.225 -17.5623 -0.316691 -2.66596 36.4366 14.4886 4.82121 -16.2569 0.0 0.0 0.0 0.0 0.0 
3157.37184699 654.043 -1694.4099937 -17.190160949 17.777763163 11.4203881261 7.59263 0.204731 -0.913884 7.59305 0.262467 -0.899006 7.58834 0.332907 -0.875372 7.58732 0.190486 -0.916959 -16.4232 3.76762 -2.03748 -16.4843 8.3878 -0.56997 -0.0 0.0 -0.0 3.09158 20.0513 6.88252 -38.9556 -4.57621 64.354 0.315437 -8.88131 0.0244967 63.4316 -2.08878 -7.41522 0.0612451 3.35536 1.81221 -0.0 0.0 -0.0 12.2854 16.6424 -24.7866 -5.96744 10.4095 -61.088 1.08475 28.2508 -0.27299 16.0481 -0.283686 2.02369 2.64443 24.6702 -6.74754 0.0 0.0 0.0 37.1922 -38.3279 -5.87827 -3.07457 0.114324 0.457943 -7.73271 28.494 1.2216 6.48686 -0.0 -0.0 -0.0 0.0 -0.0 7.7022 -9.49885 -6.63357 -18.596 -0.309704 -2.82441 37.7785 13.8532 4.92924 -15.6941 0.0 0.0 0.0 0.0 0.0 
3157.27280038 654.043 -1694.33220652 -17.2117545826 17.9939069954 11.4906977698 7.59263 0.204731 -0.913884 7.59305 0.262467 -0.899006 7.58834 0.332907 -0.875372 7.58732 0.190486 -0.916959 -16.4232 3.76762 -2.03748 -16.4843 8.3878 -0.56997 -0.0 0.0 -0.0 3.09158 20.0513 6.88252 -38.9556 -4.57621 64.354 0.315437 -8.88131 0.0244967 63.4316 -2.08878 -7.41522 0.0612451 3.35536 1.81221 -0.0 0.0 -0.0 12.2854 16.6424 -24.7866 -5.96744 10.4095 -61.088 1.08475 28.2508 -0.27299 16.0481 -0.283686 2.02369 2.64443 24.6702 -6.74754 0.0 0.0 0.0 37.1922 -38.3279 -5.87827 -3.07457 0.114324 0.457943 -7.73271 28.494 1.2216 6.48686 -0.0 -0.0 -0.0 0.0 -0.0 7.7022 -9.49885 -6.63357 -18.596 -0.309704 -2.82441 37.7785 13.8532 4.92924 -15.6941 0.0 0.0 0.0 0.0 0.0 
3157.15360949 654.043 -1694.23775597 -17.2382372863 18.2548726834 11.5758287452 7.59263 0.204731 -0.913884 7.59305 0.262467 -0.899006 7.58834 0.332907 -0.875372 7.58732 0.190486 -0.916959 -16.4232 3.76762 -2.03748 -16.4843 8.3878 -0.56997 -0.0 0.0 -0.0 3.09158 20.0513 6.88252 -38.9556 -4.57621 64.354 0.315437 -8.88131 0.0244967 63.4316 -2.08878 -7.41522 0.0612451 3.35536 1.81221 -0.0 0.0 -0.0 12.2854 16.6424 -24.7866 -5.96744 10.4095 -61.088 1.08475 28.2508 -0.27299 16.0481 -0.283686 2.02369 2.64443 24.6702 -6.74754 0.0 0.0 0.0 37.1922 -38.3279 -5.87827 -3.07457 0.114324 0.457943 -7.73271 28.494 1.2216 6.48686 -0.0 -0.0 -0.0 0.0 -0.0 7.7022 -9.49885 -6.63357 -18.596 -0.309704 -2.82441 37.7785 13.8532 4.92924 -15.6941 0.0 0.0 0.0 0.0 0.0 
3133.24232965 657.343 -1723.49052195 -17.3002305263 17.5797180891 12.1822091664 7.66348 -0.0478925 -1.16793 7.66424 0.0265179 -1.16861 7.66252 0.117537 -1.16299 7.66064 -0.067598 -1.16696 -15.3503 3.27218 -1.09628 -15.39 6.90735 0.0705344 -0.0 0.0 -0.0 3.26516 21.8594 7.17389 -37.6302 -5.00347 64.012 0.293407 -8.26995 0.0212118 63.7455 -2.11849 -7.44238 -0.231314 4.07986 0.184638 -0.0 0.0 -0.0 11.9026 15.942 -23.9394 -9.7665 8.91049 -61.8336 0.938594 24.9358 -0.207534 16.3939 -0.283518 2.06785 2.58691 24.4862 -6.46423 0.0 0.0 0.0 36.5806 -38.0744 -4.9873 -5.72575 0.193041 0.857166 -4.31693 28.0628 0.676445 7.7516 -0.0 -0.0 -0.0 0.0 -0.0 7.97278 -9.32745 -6.51355 -19.8313 -0.297608 -3.01355 37.8923 12.7511 4.90832 -15.1632 0.0 0.0 0.0 0.0 0.0 
